<svg data-v-423bf9ae="" xmlns="http://www.w3.org/2000/svg" viewBox="0 0 387 90" class="iconLeft"><!----><!----><!----><g data-v-423bf9ae="" id="e838c9b6-f5ec-41be-997a-5d7bb9a9534e" fill="black" transform="matrix(4.909983142910657,0,0,4.909983142910657,74.20596056587354,-3.7561350397233895)"><path d="M1.18 13.50L4.51 13.50C5.47 13.50 6.29 13.31 6.72 13.08C7.57 12.60 8.01 11.70 8.01 10.71C8.01 9.45 7.32 8.61 5.98 8.37C6.96 7.98 7.42 7.20 7.42 6.17C7.42 5.25 6.97 4.48 6.06 4.12C5.63 3.93 5.01 3.82 4.12 3.82L1.18 3.82ZM2.07 8.06L2.07 4.68L4.13 4.68C4.97 4.68 5.52 4.80 5.84 4.98C6.24 5.22 6.52 5.68 6.52 6.34C6.52 6.85 6.33 7.39 5.84 7.74C5.57 7.94 5.05 8.06 4.52 8.06ZM2.07 12.64L2.07 8.89L4.63 8.89C5.18 8.89 5.66 8.95 5.99 9.06C6.65 9.28 7.07 9.91 7.07 10.67C7.07 11.52 6.73 12.04 6.17 12.36C5.87 12.53 5.19 12.64 4.51 12.64ZM10.60 13.50L10.60 6.51L9.76 6.51L9.76 13.50ZM10.65 5.11L10.65 3.82L9.70 3.82L9.70 5.11ZM12.54 13.99C12.71 15.08 13.58 16.04 15.61 16.04C16.87 16.04 17.85 15.65 18.40 14.92C18.79 14.38 18.96 13.55 18.96 12.40L18.96 6.51L18.10 6.51L18.10 7.76C17.74 6.85 16.74 6.33 15.57 6.33C13.71 6.33 12.28 7.62 12.28 9.93C12.28 12.12 13.62 13.30 15.44 13.30C16.81 13.30 17.77 12.59 18.12 11.73L18.12 12.54C18.12 13.26 17.98 13.87 17.78 14.22C17.49 14.77 16.90 15.27 15.67 15.27C14.55 15.27 13.58 14.92 13.41 13.85ZM18.12 9.83C18.12 11.51 17.18 12.59 15.58 12.59C14.32 12.59 13.16 11.72 13.16 9.90C13.16 8.05 14.35 7.08 15.69 7.08C17.33 7.08 18.12 8.27 18.12 9.83ZM24.60 13.50L24.60 4.68L27.90 4.68L27.90 3.82L20.41 3.82L20.41 4.68L23.69 4.68L23.69 13.50ZM29.71 13.50L29.71 9.90C29.71 9.16 29.81 8.58 30.09 8.13C30.37 7.69 31.04 7.14 32.00 7.14C32.69 7.14 33.14 7.34 33.42 7.64C33.70 7.95 33.89 8.47 33.89 9.45L33.89 13.50L34.76 13.50L34.76 9.35C34.76 8.23 34.58 7.62 34.29 7.21C33.87 6.64 33.19 6.34 32.24 6.34C31.01 6.34 30.00 7.03 29.71 7.90L29.71 3.82L28.87 3.82L28.87 13.50ZM43.16 11.38L42.34 11.20C42.08 12.15 41.24 12.88 39.98 12.88C38.95 12.88 37.46 12.32 37.45 10.19L43.19 10.19C43.19 7.62 41.97 6.33 39.91 6.33C38.05 6.33 36.55 7.71 36.55 9.97C36.55 12.19 37.79 13.66 39.96 13.66C41.66 13.66 42.83 12.71 43.16 11.38ZM37.45 9.51C37.59 7.91 38.65 7.11 39.90 7.11C41.57 7.11 42.20 8.19 42.29 9.51ZM45.65 13.50L45.65 9.83C45.65 9.17 45.74 8.60 46.02 8.15C46.30 7.67 47.00 7.14 47.87 7.14C48.59 7.14 48.92 7.34 49.21 7.64C49.49 7.92 49.67 8.53 49.67 9.46L49.67 13.50L50.53 13.50L50.53 9.74C50.53 9.06 50.65 8.55 50.92 8.11C51.20 7.64 51.86 7.14 52.70 7.14C53.41 7.14 53.79 7.35 54.07 7.67C54.35 7.98 54.52 8.58 54.52 9.51L54.52 13.50L55.37 13.50L55.37 9.37C55.37 8.32 55.20 7.62 54.91 7.21C54.50 6.65 53.87 6.34 52.93 6.34C51.59 6.34 50.68 7.13 50.39 8.02C50.12 6.87 49.35 6.34 48.15 6.34C46.94 6.34 45.92 7.04 45.65 7.91L45.65 6.51L44.81 6.51L44.81 13.50ZM63.60 11.38L62.78 11.20C62.52 12.15 61.68 12.88 60.42 12.88C59.39 12.88 57.90 12.32 57.89 10.19L63.63 10.19C63.63 7.62 62.41 6.33 60.35 6.33C58.49 6.33 56.99 7.71 56.99 9.97C56.99 12.19 58.23 13.66 60.40 13.66C62.10 13.66 63.27 12.71 63.60 11.38ZM57.89 9.51C58.03 7.91 59.09 7.11 60.34 7.11C62.01 7.11 62.64 8.19 62.73 9.51Z"></path></g><!----><g data-v-423bf9ae="" id="00d2211a-a899-4bf7-843f-2d0c3c995a16" transform="matrix(1.8749921024178324,0,0,1.8749921024178324,0.00012636131468113376,1.0001778746307153)" stroke="none" fill="black"><g data-name="Layer 2"><path d="M16 48a5 5 0 0 1-5-5V31a1 1 0 0 1 2 0v12a3 3 0 0 0 6 0V31a1 1 0 0 1 2 0v12a5 5 0 0 1-5 5z"></path><path d="M25 32H7a7 7 0 0 1-7-7v-8a1 1 0 0 1 1-1h30a1 1 0 0 1 1 1v8a7 7 0 0 1-7 7zM2 18v7a5 5 0 0 0 5 5h18a5 5 0 0 0 5-5v-7z"></path><path d="M29 18H3a1 1 0 0 1-1-1V5a5 5 0 0 1 5-5h12a1 1 0 0 1 1 .8l1 5.1 1-5.1a1 1 0 0 1 1-.8h2a5 5 0 0 1 5 5v12a1 1 0 0 1-1 1zM4 16h24V5a3 3 0 0 0-3-3h-1.18L22 11.2a1 1 0 0 1-2 0L18.18 2H7a3 3 0 0 0-3 3zM16 44a1 1 0 0 1 0-2 1 1 0 0 1 0 2z"></path></g></g><!----></svg>